<svg width="98" height="57" viewBox="0 0 98 57" fill="none" xmlns="http://www.w3.org/2000/svg">
<path d="M0.416668 56.5C1.07917 48.6237 3.49067 41.373 7.65117 34.748C11.8117 28.123 17.3502 22.8598 24.2667 18.9584L16.0958 4.82505C15.6542 4.16255 15.5437 3.46324 15.7646 2.72713C15.9854 1.99102 16.4639 1.43894 17.2 1.07088C17.7889 0.702826 18.4514 0.629216 19.1875 0.850049C19.9236 1.07088 20.5125 1.51255 20.9542 2.17505L29.125 16.3084C35.4556 13.6584 42.0806 12.3334 49 12.3334C55.9194 12.3334 62.5444 13.6584 68.875 16.3084L77.0458 2.17505C77.4875 1.51255 78.0764 1.07088 78.8125 0.850049C79.5486 0.629216 80.2111 0.702826 80.8 1.07088C81.5361 1.43894 82.0146 1.99102 82.2354 2.72713C82.4562 3.46324 82.3458 4.16255 81.9042 4.82505L73.7333 18.9584C80.6528 22.8598 86.1913 28.123 90.3488 34.748C94.5064 41.373 96.9179 48.6237 97.5833 56.5H0.416668ZM26.9167 44.3542C28.4625 44.3542 29.7698 43.8198 30.8387 42.751C31.9075 41.6821 32.4404 40.3763 32.4375 38.8334C32.4375 37.2875 31.9031 35.9802 30.8342 34.9114C29.7654 33.8426 28.4596 33.3096 26.9167 33.3125C25.3708 33.3125 24.0635 33.847 22.9947 34.9158C21.9258 35.9846 21.3929 37.2905 21.3958 38.8334C21.3958 40.3792 21.9302 41.6865 22.9991 42.7554C24.0679 43.8242 25.3738 44.3572 26.9167 44.3542ZM71.0833 44.3542C72.6292 44.3542 73.9365 43.8198 75.0053 42.751C76.0742 41.6821 76.6071 40.3763 76.6042 38.8334C76.6042 37.2875 76.0697 35.9802 75.0009 34.9114C73.9321 33.8426 72.6262 33.3096 71.0833 33.3125C69.5375 33.3125 68.2302 33.847 67.1613 34.9158C66.0925 35.9846 65.5596 37.2905 65.5625 38.8334C65.5625 40.3792 66.0969 41.6865 67.1657 42.7554C68.2346 43.8242 69.5404 44.3572 71.0833 44.3542Z" fill="#343453"/>
</svg>
