<svg width="38" height="31" viewBox="0 0 38 31" fill="none" xmlns="http://www.w3.org/2000/svg">
<path d="M2.6264 13.5669C1.52183 13.5669 0.626404 14.4623 0.626404 15.5669C0.626404 16.6715 1.52183 17.5669 2.6264 17.5669V13.5669ZM37.4062 16.9811C38.1872 16.2001 38.1872 14.9337 37.4062 14.1527L24.6782 1.42476C23.8972 0.64371 22.6309 0.64371 21.8498 1.42476C21.0688 2.20581 21.0688 3.47214 21.8498 4.25319L33.1635 15.5669L21.8498 26.8806C21.0688 27.6617 21.0688 28.928 21.8498 29.709C22.6309 30.4901 23.8972 30.4901 24.6782 29.709L37.4062 16.9811ZM2.6264 17.5669H35.9919V13.5669H2.6264V17.5669Z" fill="#F78CAE"/>
</svg>
