<svg width="36" height="36" viewBox="0 0 36 36" fill="none" xmlns="http://www.w3.org/2000/svg">
<path d="M18.066 16.1899C21.7295 16.1899 24.8434 15.616 27.4078 14.4681C29.9722 13.3202 31.2544 11.9403 31.2544 10.3284C31.2544 8.71652 29.9722 7.33662 27.4078 6.18874C24.8434 5.04086 21.7295 4.46692 18.066 4.46692C14.4026 4.46692 11.2887 5.04086 8.72424 6.18874C6.15983 7.33662 4.87762 8.71652 4.87762 10.3284C4.87762 11.9403 6.15983 13.3202 8.72424 14.4681C11.2887 15.616 14.4026 16.1899 18.066 16.1899ZM18.066 19.8534C19.0674 19.8534 20.3193 19.7493 21.8218 19.5413C23.3243 19.3332 24.7711 18.9976 26.1622 18.5346C27.5544 18.0705 28.7511 17.4663 29.7524 16.7219C30.7538 15.9775 31.2544 15.0675 31.2544 13.9919V17.6553C31.2544 18.7299 30.7538 19.6399 29.7524 20.3853C28.7511 21.1307 27.5544 21.7349 26.1622 22.198C24.7701 22.662 23.3233 22.9981 21.8218 23.2062C20.3203 23.4143 19.0683 23.5178 18.066 23.5168C17.0647 23.5168 15.8133 23.4128 14.3117 23.2047C12.8102 22.9966 11.3629 22.6611 9.96981 22.198C8.5777 21.734 7.38098 21.1297 6.37964 20.3853C5.3783 19.6409 4.87762 18.7309 4.87762 17.6553V13.9919C4.87762 15.0665 5.3783 15.9765 6.37964 16.7219C7.38098 17.4673 8.5777 18.0715 9.96981 18.5346C11.3619 18.9986 12.8092 19.3346 14.3117 19.5427C15.8142 19.7508 17.0657 19.8544 18.066 19.8534ZM18.066 27.1803C19.0674 27.1803 20.3193 27.0762 21.8218 26.8682C23.3243 26.6601 24.7711 26.3245 26.1622 25.8614C27.5544 25.3974 28.7511 24.7932 29.7524 24.0488C30.7538 23.3044 31.2544 22.3944 31.2544 21.3188V24.9822C31.2544 26.0568 30.7538 26.9668 29.7524 27.7122C28.7511 28.4576 27.5544 29.0618 26.1622 29.5249C24.7701 29.9889 23.3233 30.325 21.8218 30.5331C20.3203 30.7412 19.0683 30.8447 18.066 30.8437C17.0647 30.8437 15.8133 30.7397 14.3117 30.5316C12.8102 30.3235 11.3629 29.9879 9.96981 29.5249C8.5777 29.0609 7.38098 28.4566 6.37964 27.7122C5.3783 26.9678 4.87762 26.0578 4.87762 24.9822V21.3188C4.87762 22.3934 5.3783 23.3034 6.37964 24.0488C7.38098 24.7942 8.5777 25.3984 9.96981 25.8614C11.3619 26.3255 12.8092 26.6615 14.3117 26.8696C15.8142 27.0777 17.0657 27.1813 18.066 27.1803Z" fill="#F98CAF"/>
</svg>
