<svg width="39" height="39" viewBox="0 0 39 39" fill="none" xmlns="http://www.w3.org/2000/svg">
<path d="M27.4178 13.5098C27.2486 13.0716 26.9895 12.6737 26.6571 12.3417C26.3248 12.0096 25.9265 11.7509 25.4881 11.5822C24.8844 11.3586 24.2468 11.2404 23.6031 11.2328C22.5327 11.1841 22.2117 11.1719 19.5 11.1719C16.7883 11.1719 16.4673 11.1841 15.3969 11.2328C14.7525 11.2402 14.1142 11.3584 13.5098 11.5822C13.0716 11.7514 12.6737 12.0105 12.3417 12.3429C12.0096 12.6752 11.7509 13.0735 11.5822 13.5119C11.3586 14.1156 11.2404 14.7532 11.2328 15.3969C11.1841 16.4673 11.1719 16.7883 11.1719 19.5C11.1719 22.2117 11.1841 22.5327 11.2328 23.6031C11.2402 24.2475 11.3584 24.8858 11.5822 25.4902C11.7514 25.9284 12.0105 26.3263 12.3429 26.6583C12.6752 26.9903 13.0735 27.2491 13.5119 27.4178C14.1156 27.6414 14.7532 27.7596 15.3969 27.7672C16.4673 27.8159 16.7883 27.8281 19.5 27.8281C22.2117 27.8281 22.5327 27.8159 23.6031 27.7672C24.2475 27.7598 24.8858 27.6416 25.4902 27.4178C25.9284 27.2486 26.3263 26.9895 26.6583 26.6571C26.9903 26.3248 27.2491 25.9265 27.4178 25.4881C27.6414 24.8844 27.7596 24.2468 27.7672 23.6031C27.8159 22.5327 27.8281 22.2117 27.8281 19.5C27.8281 16.7883 27.8159 16.4673 27.7672 15.3969C27.7598 14.7525 27.6416 14.1142 27.4178 13.5098ZM19.5 24.7162C18.4683 24.7162 17.4598 24.4103 16.602 23.8371C15.7442 23.264 15.0756 22.4493 14.6808 21.4962C14.286 20.543 14.1827 19.4942 14.384 18.4824C14.5852 17.4705 15.082 16.5411 15.8116 15.8116C16.5411 15.082 17.4705 14.5852 18.4824 14.384C19.4942 14.1827 20.543 14.286 21.4962 14.6808C22.4493 15.0756 23.264 15.7442 23.8371 16.602C24.4103 17.4598 24.7162 18.4683 24.7162 19.5C24.7162 20.8834 24.1667 22.2102 23.1884 23.1884C22.2102 24.1667 20.8834 24.7162 19.5 24.7162ZM24.9214 15.2973C24.6804 15.2973 24.4447 15.2259 24.2443 15.0919C24.0439 14.958 23.8877 14.7677 23.7954 14.545C23.7032 14.3223 23.679 14.0772 23.7261 13.8408C23.7731 13.6044 23.8892 13.3873 24.0596 13.2168C24.2301 13.0464 24.4472 12.9303 24.6836 12.8833C24.92 12.8362 25.1651 12.8604 25.3878 12.9526C25.6105 13.0449 25.8008 13.2011 25.9348 13.4015C26.0687 13.6019 26.1402 13.8375 26.1402 14.0786C26.1402 14.4018 26.0117 14.7118 25.7832 14.9404C25.5546 15.1689 25.2446 15.2973 24.9214 15.2973Z" fill="#C7C8CD"/>
<path d="M19.5 22.8864C21.3701 22.8864 22.8861 21.3704 22.8861 19.5004C22.8861 17.6303 21.3701 16.1143 19.5 16.1143C17.6299 16.1143 16.1139 17.6303 16.1139 19.5004C16.1139 21.3704 17.6299 22.8864 19.5 22.8864Z" fill="#C7C8CD"/>
<path d="M19.5 0C15.6433 0 11.8731 1.14365 8.66639 3.28634C5.45963 5.42903 2.96027 8.47451 1.48436 12.0377C0.008449 15.6008 -0.377716 19.5216 0.374696 23.3043C1.12711 27.0869 2.9843 30.5615 5.71143 33.2886C8.43855 36.0157 11.9131 37.8729 15.6957 38.6253C19.4784 39.3777 23.3992 38.9916 26.9623 37.5156C30.5255 36.0397 33.571 33.5404 35.7137 30.3336C37.8563 27.1269 39 23.3567 39 19.5C39 14.3283 36.9455 9.36837 33.2886 5.71142C29.6316 2.05446 24.6717 0 19.5 0ZM29.5953 23.6884C29.5779 24.5306 29.4179 25.3637 29.122 26.1523C28.8612 26.8269 28.4623 27.4395 27.9509 27.9509C27.4395 28.4623 26.8269 28.8612 26.1523 29.122C25.3637 29.4179 24.5306 29.5779 23.6884 29.5953C22.6038 29.6441 22.2584 29.6562 19.5 29.6562C16.7416 29.6562 16.3963 29.6441 15.3116 29.5953C14.4694 29.5779 13.6363 29.4179 12.8477 29.122C12.1731 28.8612 11.5605 28.4623 11.0491 27.9509C10.5377 27.4395 10.1388 26.8269 9.87797 26.1523C9.58215 25.3637 9.42212 24.5306 9.40469 23.6884C9.35594 22.6037 9.34376 22.2584 9.34376 19.5C9.34376 16.7416 9.35594 16.3962 9.40469 15.3116C9.42212 14.4694 9.58215 13.6363 9.87797 12.8477C10.1388 12.1731 10.5377 11.5605 11.0491 11.0491C11.5605 10.5377 12.1731 10.1388 12.8477 9.87797C13.6363 9.58214 14.4694 9.42211 15.3116 9.40469C16.3963 9.35594 16.7416 9.34375 19.5 9.34375C22.2584 9.34375 22.6038 9.35594 23.6884 9.40469C24.5306 9.42211 25.3637 9.58214 26.1523 9.87797C26.8269 10.1388 27.4395 10.5377 27.9509 11.0491C28.4623 11.5605 28.8612 12.1731 29.122 12.8477C29.4179 13.6363 29.5779 14.4694 29.5953 15.3116C29.6441 16.3962 29.6563 16.7416 29.6563 19.5C29.6563 22.2584 29.6441 22.6037 29.5953 23.6884Z" fill="#C7C8CD"/>
</svg>
