<svg width="43" height="43" viewBox="0 0 43 43" fill="none" xmlns="http://www.w3.org/2000/svg">
<path d="M23.8005 18.9931H23.8306V18.9458L23.8005 18.9931ZM23.8005 18.9931H23.8306V18.9458L23.8005 18.9931ZM23.8005 18.9931H23.8306V18.9458L23.8005 18.9931ZM23.8005 18.9931H23.8306V18.9458L23.8005 18.9931ZM23.8005 18.9931H23.8306V18.9458L23.8005 18.9931ZM23.8005 18.9931H23.8306V18.9458L23.8005 18.9931ZM23.8005 18.9931H23.8306V18.9458L23.8005 18.9931ZM23.8005 18.9931H23.8306V18.9458L23.8005 18.9931ZM23.8005 18.9931H23.8306V18.9458L23.8005 18.9931ZM23.8005 18.9931H23.8306V18.9458L23.8005 18.9931ZM23.8005 18.9931H23.8306V18.9458L23.8005 18.9931ZM23.8005 18.9931H23.8306V18.9458L23.8005 18.9931ZM23.8005 18.9931H23.8306V18.9458L23.8005 18.9931ZM23.8005 18.9931H23.8306V18.9458L23.8005 18.9931ZM23.8005 18.9931H23.8306V18.9458L23.8005 18.9931ZM23.8005 18.9931H23.8306V18.9458L23.8005 18.9931ZM21.844 1.62109C17.9599 1.62109 14.1631 2.77285 10.9336 4.93071C7.70417 7.08857 5.1871 10.1556 3.70074 13.744C2.21438 17.3324 1.82548 21.281 2.58322 25.0904C3.34096 28.8998 5.21131 32.399 7.95775 35.1454C10.7042 37.8919 14.2034 39.7622 18.0128 40.52C21.8222 41.2777 25.7708 40.8888 29.3592 39.4024C32.9475 37.9161 36.0146 35.399 38.1725 32.1695C40.3303 28.9401 41.4821 25.1432 41.4821 21.2592C41.4764 16.0526 39.4056 11.0609 35.7239 7.37925C32.0423 3.69762 27.0506 1.62678 21.844 1.62109ZM16.9334 30.1C16.9323 30.1871 16.8969 30.2702 16.8349 30.3313C16.7729 30.3925 16.6894 30.4268 16.6023 30.4268H12.8183C12.7316 30.4268 12.6485 30.3924 12.5872 30.3311C12.5259 30.2698 12.4915 30.1867 12.4915 30.1V17.3849C12.4909 17.3416 12.4989 17.2987 12.5151 17.2585C12.5313 17.2184 12.5553 17.1818 12.5857 17.151C12.6161 17.1202 12.6523 17.0958 12.6922 17.0791C12.7321 17.0624 12.775 17.0538 12.8183 17.0538H16.6023C16.6458 17.0538 16.6888 17.0624 16.729 17.079C16.7692 17.0956 16.8057 17.12 16.8364 17.1508C16.8671 17.1815 16.8915 17.218 16.9082 17.2582C16.9248 17.2984 16.9334 17.3414 16.9334 17.3849V30.1ZM14.577 15.3553C14.1067 15.3553 13.6469 15.2158 13.2559 14.9545C12.8648 14.6933 12.5601 14.3219 12.3801 13.8874C12.2001 13.4529 12.153 12.9748 12.2448 12.5135C12.3365 12.0522 12.563 11.6285 12.8956 11.296C13.2281 10.9634 13.6518 10.7369 14.1131 10.6452C14.5743 10.5534 15.0525 10.6005 15.487 10.7805C15.9215 10.9605 16.2928 11.2653 16.5541 11.6563C16.8154 12.0473 16.9549 12.5071 16.9549 12.9774C16.9554 13.2898 16.8943 13.5993 16.775 13.888C16.6557 14.1768 16.4806 14.4392 16.2597 14.6601C16.0388 14.881 15.7764 15.0561 15.4876 15.1754C15.1989 15.2947 14.8894 15.3559 14.577 15.3553ZM32.9466 30.1C32.9454 30.1871 32.9101 30.2702 32.8481 30.3313C32.7861 30.3925 32.7026 30.4268 32.6155 30.4268H28.8315C28.7886 30.4268 28.7461 30.4183 28.7064 30.4019C28.6668 30.3855 28.6307 30.3614 28.6004 30.3311C28.57 30.3007 28.546 30.2647 28.5296 30.2251C28.5131 30.1854 28.5047 30.1429 28.5047 30.1V23.2673C28.5047 21.4699 27.864 20.2573 26.2558 20.2573C25.7547 20.2601 25.2667 20.4178 24.8587 20.7088C24.4507 20.9998 24.1426 21.4098 23.9768 21.8827C23.8634 22.2322 23.8139 22.5992 23.8306 22.9663V30.1C23.8306 30.1878 23.7957 30.272 23.7336 30.3341C23.6715 30.3962 23.5873 30.4311 23.4995 30.4311H19.7155C19.6722 30.4311 19.6293 30.4225 19.5894 30.4058C19.5495 30.3891 19.5133 30.3647 19.4829 30.3339C19.4525 30.3031 19.4285 30.2665 19.4123 30.2264C19.3961 30.1862 19.3881 30.1433 19.3887 30.1C19.3887 28.2854 19.436 19.4747 19.3887 17.4021C19.3881 17.3588 19.3961 17.3159 19.4123 17.2757C19.4285 17.2356 19.4525 17.199 19.4829 17.1682C19.5133 17.1374 19.5495 17.113 19.5894 17.0963C19.6293 17.0796 19.6722 17.071 19.7155 17.071H23.4909C23.5345 17.0704 23.5778 17.0786 23.6183 17.095C23.6587 17.1115 23.6954 17.1358 23.7263 17.1667C23.7572 17.1975 23.7815 17.2343 23.798 17.2747C23.8144 17.3151 23.8226 17.3585 23.822 17.4021V18.963C24.2242 18.2648 24.81 17.6901 25.5157 17.3012C26.2214 16.9123 27.0202 16.7241 27.8253 16.7571C30.745 16.7571 32.938 18.6663 32.938 22.7771L32.9466 30.1ZM23.8306 19.006V18.9587L23.8005 19.006H23.8306ZM23.8005 19.006H23.8306V18.9587L23.8005 19.006ZM23.8005 19.006H23.8306V18.9587L23.8005 19.006ZM23.8005 19.006H23.8306V18.9587L23.8005 19.006ZM23.8005 19.006H23.8306V18.9587L23.8005 19.006ZM23.8005 19.006H23.8306V18.9587L23.8005 19.006ZM23.8005 19.006H23.8306V18.9587L23.8005 19.006ZM23.8005 19.006H23.8306V18.9587L23.8005 19.006ZM23.8005 19.006H23.8306V18.9587L23.8005 19.006ZM23.8005 19.006H23.8306V18.9587L23.8005 19.006ZM23.8005 19.006H23.8306V18.9587L23.8005 19.006ZM23.8005 19.006H23.8306V18.9587L23.8005 19.006ZM23.8005 19.006H23.8306V18.9587L23.8005 19.006ZM23.8005 19.006H23.8306V18.9587L23.8005 19.006ZM23.8005 19.006H23.8306V18.9587L23.8005 19.006Z" fill="#C7C8CD"/>
</svg>
