<svg width="164" height="32" viewBox="0 0 164 32" fill="none" xmlns="http://www.w3.org/2000/svg">
<rect width="3.09719" height="3.10746" rx="1.54859" transform="matrix(0.83951 -0.543344 0.537254 0.84342 4.30469 16.9529)" fill="#FF2F71"/>
<path fill-rule="evenodd" clip-rule="evenodd" d="M25.8355 6.43124C26.3945 5.11704 25.4625 3.64867 24.0445 3.60941L2.06836 3.00085C0.198684 2.94908 -0.72024 5.27479 0.672815 6.53286L9.34663 14.3662C9.38425 14.4001 9.4205 14.4354 9.45533 14.472C13.0873 17.2999 15.9767 21.0498 17.7784 25.3738L25.8355 6.43124Z" fill="#E30B50"/>
<path fill-rule="evenodd" clip-rule="evenodd" d="M17.7796 25.3738L17.1845 26.773C16.449 28.5021 13.9759 28.3736 13.4206 26.5775L9.92519 15.2718C9.83236 14.9715 9.67165 14.6979 9.45654 14.472C13.0885 17.2999 15.9779 21.0498 17.7796 25.3738Z" fill="#A31745"/>
<path d="M53.8691 20.3633V23H46.291V20.3633H53.8691ZM47.5117 8.78125V23H44.084V8.78125H47.5117ZM52.8926 14.4258V16.9746H46.291V14.4258H52.8926ZM53.8984 8.78125V11.4277H46.291V8.78125H53.8984ZM69.3613 18.1855H72.7793C72.7337 19.1751 72.4668 20.0475 71.9785 20.8027C71.4902 21.5579 70.8132 22.1471 69.9473 22.5703C69.0879 22.987 68.0723 23.1953 66.9004 23.1953C65.9499 23.1953 65.1003 23.0358 64.3516 22.7168C63.6094 22.3978 62.9779 21.9388 62.457 21.3398C61.9427 20.7409 61.5488 20.015 61.2754 19.1621C61.0085 18.3092 60.875 17.349 60.875 16.2812V15.5098C60.875 14.4421 61.015 13.4818 61.2949 12.6289C61.5814 11.7695 61.985 11.0404 62.5059 10.4414C63.0332 9.83594 63.6647 9.3737 64.4004 9.05469C65.1361 8.73568 65.9531 8.57617 66.8516 8.57617C68.0885 8.57617 69.1335 8.79753 69.9863 9.24023C70.8392 9.68294 71.5 10.2917 71.9688 11.0664C72.4375 11.8346 72.7142 12.7103 72.7988 13.6934H69.3809C69.3678 13.1595 69.2767 12.7135 69.1074 12.3555C68.9382 11.9909 68.6712 11.7174 68.3066 11.5352C67.9421 11.3529 67.457 11.2617 66.8516 11.2617C66.4284 11.2617 66.0605 11.3398 65.748 11.4961C65.4355 11.6523 65.1751 11.8997 64.9668 12.2383C64.7585 12.5768 64.6022 13.0163 64.498 13.5566C64.4004 14.0905 64.3516 14.735 64.3516 15.4902V16.2812C64.3516 17.0365 64.3971 17.681 64.4883 18.2148C64.5794 18.7487 64.7259 19.1849 64.9277 19.5234C65.1296 19.862 65.39 20.1126 65.709 20.2754C66.0345 20.4316 66.4316 20.5098 66.9004 20.5098C67.4212 20.5098 67.8607 20.4284 68.2188 20.2656C68.5768 20.0964 68.8535 19.8424 69.0488 19.5039C69.2441 19.1589 69.3483 18.7194 69.3613 18.1855ZM92.4316 15.6074V16.1836C92.4316 17.2708 92.2786 18.2474 91.9727 19.1133C91.6732 19.9727 91.2467 20.7083 90.6934 21.3203C90.14 21.9258 89.4857 22.3913 88.7305 22.7168C87.9753 23.0358 87.1419 23.1953 86.2305 23.1953C85.3125 23.1953 84.4727 23.0358 83.7109 22.7168C82.9557 22.3913 82.2982 21.9258 81.7383 21.3203C81.1849 20.7083 80.7552 19.9727 80.4492 19.1133C80.1497 18.2474 80 17.2708 80 16.1836V15.6074C80 14.5202 80.1497 13.5436 80.4492 12.6777C80.7552 11.8118 81.1816 11.0762 81.7285 10.4707C82.2819 9.85872 82.9362 9.39323 83.6914 9.07422C84.4531 8.7487 85.293 8.58594 86.2109 8.58594C87.1224 8.58594 87.9557 8.7487 88.7109 9.07422C89.4727 9.39323 90.1302 9.85872 90.6836 10.4707C91.237 11.0762 91.6667 11.8118 91.9727 12.6777C92.2786 13.5436 92.4316 14.5202 92.4316 15.6074ZM88.9551 16.1836V15.5879C88.9551 14.8848 88.8932 14.2663 88.7695 13.7324C88.6523 13.1921 88.4766 12.7396 88.2422 12.375C88.0078 12.0104 87.7181 11.737 87.373 11.5547C87.0345 11.3659 86.6471 11.2715 86.2109 11.2715C85.7552 11.2715 85.3581 11.3659 85.0195 11.5547C84.681 11.737 84.3978 12.0104 84.1699 12.375C83.9421 12.7396 83.7695 13.1921 83.6523 13.7324C83.5417 14.2663 83.4863 14.8848 83.4863 15.5879V16.1836C83.4863 16.8802 83.5417 17.4987 83.6523 18.0391C83.7695 18.5729 83.9421 19.0254 84.1699 19.3965C84.4043 19.7676 84.6908 20.0475 85.0293 20.2363C85.3743 20.4251 85.7747 20.5195 86.2305 20.5195C86.6667 20.5195 87.054 20.4251 87.3926 20.2363C87.7311 20.0475 88.0143 19.7676 88.2422 19.3965C88.4766 19.0254 88.6523 18.5729 88.7695 18.0391C88.8932 17.4987 88.9551 16.8802 88.9551 16.1836ZM104.828 23H101.674L101.693 20.3633H104.828C105.479 20.3633 106.029 20.207 106.479 19.8945C106.934 19.582 107.279 19.1165 107.514 18.498C107.755 17.873 107.875 17.1048 107.875 16.1934V15.5781C107.875 14.8945 107.807 14.2956 107.67 13.7812C107.54 13.2604 107.344 12.8275 107.084 12.4824C106.824 12.1309 106.498 11.8672 106.107 11.6914C105.723 11.5156 105.281 11.4277 104.779 11.4277H101.615V8.78125H104.779C105.743 8.78125 106.625 8.94727 107.426 9.2793C108.233 9.60482 108.93 10.0736 109.516 10.6855C110.108 11.291 110.564 12.0104 110.883 12.8438C111.208 13.6706 111.371 14.5885 111.371 15.5977V16.1934C111.371 17.196 111.208 18.1139 110.883 18.9473C110.564 19.7806 110.111 20.5 109.525 21.1055C108.939 21.7109 108.246 22.1797 107.445 22.5117C106.651 22.8372 105.779 23 104.828 23ZM103.637 8.78125V23H100.209V8.78125H103.637ZM122.801 8.78125V23H119.383V8.78125H122.801ZM143.088 8.78125V23H139.67L134.641 14.1523V23H131.213V8.78125H134.641L139.67 17.6289V8.78125H143.088ZM162.887 15.4023V21.2422C162.646 21.5091 162.275 21.7956 161.773 22.1016C161.279 22.401 160.654 22.6582 159.898 22.873C159.143 23.0879 158.255 23.1953 157.232 23.1953C156.288 23.1953 155.432 23.0456 154.664 22.7461C153.896 22.4401 153.235 21.9941 152.682 21.4082C152.135 20.8158 151.712 20.0931 151.412 19.2402C151.119 18.3809 150.973 17.3978 150.973 16.291V15.5C150.973 14.3932 151.122 13.4102 151.422 12.5508C151.721 11.6914 152.141 10.9688 152.682 10.3828C153.229 9.79036 153.87 9.34115 154.605 9.03516C155.348 8.72917 156.161 8.57617 157.047 8.57617C158.355 8.57617 159.42 8.78451 160.24 9.20117C161.061 9.61133 161.682 10.181 162.105 10.9102C162.529 11.6328 162.786 12.4694 162.877 13.4199H159.586C159.521 12.9512 159.397 12.554 159.215 12.2285C159.039 11.8965 158.785 11.6458 158.453 11.4766C158.121 11.3008 157.691 11.2129 157.164 11.2129C156.754 11.2129 156.38 11.3008 156.041 11.4766C155.709 11.6523 155.426 11.9193 155.191 12.2773C154.957 12.6289 154.775 13.0716 154.645 13.6055C154.521 14.1393 154.459 14.7643 154.459 15.4805V16.291C154.459 17.0007 154.518 17.6224 154.635 18.1562C154.758 18.6901 154.941 19.1361 155.182 19.4941C155.429 19.8457 155.742 20.1126 156.119 20.2949C156.503 20.4707 156.956 20.5586 157.477 20.5586C157.841 20.5586 158.154 20.5293 158.414 20.4707C158.674 20.4056 158.889 20.3275 159.059 20.2363C159.234 20.1387 159.368 20.0475 159.459 19.9629V17.7559H157.076V15.4023H162.887Z" fill="white"/>
</svg>
