<svg width="40" height="41" viewBox="0 0 40 41" fill="none" xmlns="http://www.w3.org/2000/svg">
<g clip-path="url(#clip0_66_448)">
<path d="M17.2875 24.6754L24.0775 20.4998L17.2875 16.3242V24.6754Z" fill="#C7C8CD"/>
<path d="M20 0C8.955 0 0 9.17759 0 20.5C0 31.8224 8.955 41 20 41C31.045 41 40 31.8211 40 20.5C40 9.17887 31.045 0 20 0ZM30.86 21.3982C30.86 23.32 30.6425 25.2419 30.6425 25.2419C30.6425 25.2419 30.43 26.8793 29.78 27.5981C28.9537 28.5437 28.0287 28.5488 27.6038 28.6052C24.5638 28.8435 20 28.8512 20 28.8512C20 28.8512 14.3525 28.7948 12.615 28.6129C12.1313 28.5142 11.0475 28.5424 10.22 27.5981C9.56875 26.8781 9.3575 25.2419 9.3575 25.2419C9.3575 25.2419 9.14 23.3213 9.14 21.3982V19.5967C9.14 17.6748 9.3575 15.7542 9.3575 15.7542C9.3575 15.7542 9.57 14.1168 10.22 13.3955C11.0462 12.4486 11.9712 12.4435 12.3962 12.3897C15.435 12.1488 19.995 12.1488 19.995 12.1488H20.005C20.005 12.1488 24.565 12.1488 27.6038 12.3897C28.0275 12.4435 28.9537 12.4486 29.78 13.3942C30.4312 14.1155 30.6425 15.753 30.6425 15.753C30.6425 15.753 30.86 17.6748 30.86 19.5967V21.3982Z" fill="#C7C8CD"/>
</g>
<defs>
<clipPath id="clip0_66_448">
<rect width="40" height="41" fill="white"/>
</clipPath>
</defs>
</svg>
